<svg width="24" height="24" viewBox="0 0 24 24" fill="none" xmlns="http://www.w3.org/2000/svg">
<circle cx="12" cy="12" r="12" fill="white"/>
<path d="M8.95898 11.6348C8.6237 11.6771 8.32096 11.7731 8.05078 11.9229C7.7806 12.0693 7.54948 12.2614 7.35742 12.499C7.16862 12.7334 7.02214 13.0068 6.91797 13.3193C6.81706 13.6318 6.7666 13.9736 6.7666 14.3447C6.7666 14.8851 6.87891 15.2855 7.10352 15.5459C7.32812 15.8063 7.67155 15.9365 8.13379 15.9365C8.44303 15.9365 8.75228 15.8828 9.06152 15.7754C9.37402 15.668 9.67513 15.5133 9.96484 15.3115C10.2546 15.1064 10.5296 14.8574 10.79 14.5645C11.0537 14.2682 11.2913 13.9313 11.5029 13.5537L11.7568 13.1045L11.8838 13.1973L11.6348 13.6465C11.4004 14.0697 11.1432 14.4391 10.8633 14.7549C10.5866 15.0706 10.2936 15.3343 9.98438 15.5459C9.67839 15.7575 9.35775 15.9154 9.02246 16.0195C8.69043 16.127 8.35352 16.1807 8.01172 16.1807C7.69922 16.1807 7.41927 16.1351 7.17188 16.0439C6.92448 15.9528 6.71289 15.8226 6.53711 15.6533C6.36458 15.4808 6.23112 15.2741 6.13672 15.0332C6.04557 14.7891 6 14.5173 6 14.2178C6 13.8564 6.06673 13.5228 6.2002 13.2168C6.33366 12.9108 6.51921 12.6439 6.75684 12.416C6.99772 12.1849 7.28581 11.9977 7.62109 11.8545C7.95638 11.708 8.32585 11.6169 8.72949 11.5811C8.48535 11.4443 8.29818 11.2588 8.16797 11.0244C8.03776 10.79 7.97266 10.5247 7.97266 10.2285C7.97266 9.94206 8.03288 9.67188 8.15332 9.41797C8.27376 9.16406 8.43652 8.94271 8.6416 8.75391C8.84993 8.5651 9.09245 8.41699 9.36914 8.30957C9.64583 8.19889 9.94043 8.14355 10.2529 8.14355C10.4515 8.14355 10.6338 8.17122 10.7998 8.22656C10.9691 8.2819 11.1139 8.36003 11.2344 8.46094C11.3581 8.56185 11.4525 8.68229 11.5176 8.82227C11.5859 8.95898 11.6201 9.11035 11.6201 9.27637C11.6201 9.58887 11.5225 9.87207 11.3271 10.126C11.1351 10.3766 10.8747 10.5964 10.5459 10.7852L10.4775 10.6387C10.6045 10.5671 10.7184 10.4808 10.8193 10.3799C10.9202 10.279 11.0049 10.1683 11.0732 10.0479C11.1449 9.92415 11.2002 9.79395 11.2393 9.65723C11.2783 9.51725 11.2979 9.37565 11.2979 9.23242C11.2979 8.93945 11.2197 8.71647 11.0635 8.56348C10.9105 8.41048 10.6891 8.33398 10.3994 8.33398C10.1455 8.33398 9.90462 8.39258 9.67676 8.50977C9.45215 8.6237 9.25521 8.77995 9.08594 8.97852C8.91667 9.17383 8.78158 9.40332 8.68066 9.66699C8.58301 9.92741 8.53418 10.2041 8.53418 10.4971C8.53418 10.751 8.57161 10.9707 8.64648 11.1562C8.72135 11.3385 8.82715 11.4688 8.96387 11.5469C8.98014 11.5404 9.00618 11.5339 9.04199 11.5273C9.0778 11.5208 9.11198 11.5176 9.14453 11.5176C9.23568 11.5176 9.28125 11.5404 9.28125 11.5859C9.28125 11.638 9.23405 11.6641 9.13965 11.6641C9.1071 11.6641 9.07454 11.6608 9.04199 11.6543C9.00944 11.6478 8.98177 11.6413 8.95898 11.6348ZM13.7441 7.64062H14.4717L12.7676 12.3135C12.9889 11.9424 13.1989 11.6201 13.3975 11.3467C13.5993 11.07 13.7995 10.8421 13.998 10.6631C14.1966 10.4808 14.4001 10.3457 14.6084 10.2578C14.8167 10.1667 15.0397 10.1211 15.2773 10.1211C15.4759 10.1211 15.6501 10.1536 15.7998 10.2188C15.9528 10.2839 16.0798 10.3766 16.1807 10.4971C16.2848 10.6143 16.363 10.7559 16.415 10.9219C16.4671 11.0879 16.4932 11.2734 16.4932 11.4785C16.4932 11.625 16.4655 11.7975 16.4102 11.9961C16.3581 12.1947 16.2913 12.4062 16.21 12.6309C16.1286 12.8555 16.0407 13.0866 15.9463 13.3242C15.8519 13.5586 15.764 13.7865 15.6826 14.0078C15.6012 14.2292 15.5329 14.4359 15.4775 14.6279C15.4255 14.8167 15.3994 14.9779 15.3994 15.1113C15.3994 15.3359 15.458 15.515 15.5752 15.6484C15.6956 15.7819 15.8812 15.8486 16.1318 15.8486C16.3499 15.8486 16.5599 15.8014 16.7617 15.707C16.9668 15.6126 17.1686 15.471 17.3672 15.2822C17.569 15.0902 17.7708 14.8509 17.9727 14.5645C18.1745 14.2747 18.3844 13.9378 18.6025 13.5537L18.8564 13.1045L18.9883 13.1973L18.7344 13.6465C18.4967 14.0664 18.2689 14.431 18.0508 14.7402C17.8359 15.0462 17.6195 15.3001 17.4014 15.502C17.1865 15.7005 16.9668 15.8486 16.7422 15.9463C16.5176 16.0439 16.2783 16.0928 16.0244 16.0928C15.8258 16.0928 15.6501 16.0618 15.4971 16C15.3473 15.9414 15.2204 15.8568 15.1162 15.7461C15.0153 15.6354 14.9388 15.502 14.8867 15.3457C14.8346 15.1895 14.8086 15.0153 14.8086 14.8232C14.8086 14.6833 14.8346 14.5156 14.8867 14.3203C14.9421 14.1217 15.0104 13.9085 15.0918 13.6807C15.1732 13.4528 15.2611 13.2201 15.3555 12.9824C15.4499 12.7415 15.5378 12.5104 15.6191 12.2891C15.7005 12.0677 15.7673 11.8626 15.8193 11.6738C15.8747 11.4818 15.9023 11.3223 15.9023 11.1953C15.9023 10.9414 15.8421 10.7396 15.7217 10.5898C15.6045 10.4401 15.4206 10.3652 15.1699 10.3652C14.9486 10.3652 14.7354 10.4173 14.5303 10.5215C14.3252 10.6257 14.1136 10.7917 13.8955 11.0195C13.6807 11.2441 13.4544 11.5355 13.2168 11.8936C12.9824 12.2516 12.7269 12.6862 12.4502 13.1973L11.4248 16H10.7021L13.7441 7.64062Z" fill="black"/>
</svg>
