<svg width="32" height="32" viewBox="0 0 32 32" fill="none" xmlns="http://www.w3.org/2000/svg">
<circle cx="16" cy="16" r="16" fill="white"/>
<path d="M11.1426 14.8887C10.6732 14.9479 10.2493 15.0824 9.87109 15.292C9.49284 15.4971 9.16927 15.766 8.90039 16.0986C8.63607 16.4268 8.43099 16.8096 8.28516 17.2471C8.14388 17.6846 8.07324 18.1631 8.07324 18.6826C8.07324 19.4391 8.23047 19.9997 8.54492 20.3643C8.85938 20.7288 9.34017 20.9111 9.9873 20.9111C10.4202 20.9111 10.8532 20.8359 11.2861 20.6855C11.7236 20.5352 12.1452 20.3187 12.5508 20.0361C12.9564 19.749 13.3415 19.4004 13.7061 18.9902C14.0752 18.5755 14.4079 18.1038 14.7041 17.5752L15.0596 16.9463L15.2373 17.0762L14.8887 17.7051C14.5605 18.2975 14.2005 18.8148 13.8086 19.2568C13.4212 19.6989 13.0111 20.068 12.5781 20.3643C12.1497 20.6605 11.7008 20.8815 11.2314 21.0273C10.7666 21.1777 10.2949 21.2529 9.81641 21.2529C9.37891 21.2529 8.98698 21.1891 8.64062 21.0615C8.29427 20.9339 7.99805 20.7516 7.75195 20.5146C7.51042 20.2731 7.32357 19.9837 7.19141 19.6465C7.0638 19.3047 7 18.9242 7 18.5049C7 17.999 7.09342 17.5319 7.28027 17.1035C7.46712 16.6751 7.72689 16.3014 8.05957 15.9824C8.39681 15.6589 8.80013 15.3968 9.26953 15.1963C9.73893 14.9912 10.2562 14.8636 10.8213 14.8135C10.4795 14.6221 10.2174 14.3623 10.0352 14.0342C9.85286 13.7061 9.76172 13.3346 9.76172 12.9199C9.76172 12.5189 9.84603 12.1406 10.0146 11.7852C10.1833 11.4297 10.4111 11.1198 10.6982 10.8555C10.9899 10.5911 11.3294 10.3838 11.7168 10.2334C12.1042 10.0785 12.5166 10.001 12.9541 10.001C13.2321 10.001 13.4873 10.0397 13.7197 10.1172C13.9567 10.1947 14.1595 10.304 14.3281 10.4453C14.5013 10.5866 14.6335 10.7552 14.7246 10.9512C14.8203 11.1426 14.8682 11.3545 14.8682 11.5869C14.8682 12.0244 14.7314 12.4209 14.458 12.7764C14.1891 13.1273 13.8245 13.4349 13.3643 13.6992L13.2686 13.4941C13.4463 13.3939 13.6058 13.2731 13.7471 13.1318C13.8883 12.9906 14.0068 12.8356 14.1025 12.667C14.2028 12.4938 14.2803 12.3115 14.335 12.1201C14.3896 11.9242 14.417 11.7259 14.417 11.5254C14.417 11.1152 14.3076 10.8031 14.0889 10.5889C13.8747 10.3747 13.5648 10.2676 13.1592 10.2676C12.8037 10.2676 12.4665 10.3496 12.1475 10.5137C11.833 10.6732 11.5573 10.8919 11.3203 11.1699C11.0833 11.4434 10.8942 11.7646 10.7529 12.1338C10.6162 12.4984 10.5479 12.8857 10.5479 13.2959C10.5479 13.6514 10.6003 13.959 10.7051 14.2188C10.8099 14.474 10.958 14.6562 11.1494 14.7656C11.1722 14.7565 11.2087 14.7474 11.2588 14.7383C11.3089 14.7292 11.3568 14.7246 11.4023 14.7246C11.5299 14.7246 11.5938 14.7565 11.5938 14.8203C11.5938 14.8932 11.5277 14.9297 11.3955 14.9297C11.3499 14.9297 11.3044 14.9251 11.2588 14.916C11.2132 14.9069 11.1745 14.8978 11.1426 14.8887ZM17.8418 9.29688H18.8604L16.4746 15.8389C16.7845 15.3193 17.0785 14.8682 17.3564 14.4854C17.639 14.098 17.9193 13.779 18.1973 13.5283C18.4753 13.2731 18.7601 13.084 19.0518 12.9609C19.3434 12.8333 19.6556 12.7695 19.9883 12.7695C20.2663 12.7695 20.5101 12.8151 20.7197 12.9062C20.9339 12.9974 21.1117 13.1273 21.2529 13.2959C21.3988 13.46 21.5081 13.6582 21.5811 13.8906C21.654 14.123 21.6904 14.3828 21.6904 14.6699C21.6904 14.875 21.6517 15.1165 21.5742 15.3945C21.5013 15.6725 21.4079 15.9688 21.2939 16.2832C21.18 16.5977 21.057 16.9212 20.9248 17.2539C20.7926 17.582 20.6696 17.901 20.5557 18.2109C20.4417 18.5208 20.346 18.8102 20.2686 19.0791C20.1956 19.3434 20.1592 19.569 20.1592 19.7559C20.1592 20.0703 20.2412 20.321 20.4053 20.5078C20.5739 20.6947 20.8337 20.7881 21.1846 20.7881C21.4899 20.7881 21.7839 20.722 22.0664 20.5898C22.3535 20.4577 22.6361 20.2594 22.9141 19.9951C23.1966 19.7262 23.4792 19.3913 23.7617 18.9902C24.0443 18.5846 24.3382 18.113 24.6436 17.5752L24.999 16.9463L25.1836 17.0762L24.8281 17.7051C24.4954 18.293 24.1764 18.8034 23.8711 19.2363C23.5703 19.6647 23.2673 20.0202 22.9619 20.3027C22.6611 20.5807 22.3535 20.7881 22.0391 20.9248C21.7246 21.0615 21.3896 21.1299 21.0342 21.1299C20.7562 21.1299 20.5101 21.0866 20.2959 21C20.0863 20.918 19.9085 20.7995 19.7627 20.6445C19.6214 20.4896 19.5143 20.3027 19.4414 20.084C19.3685 19.8652 19.332 19.6214 19.332 19.3525C19.332 19.1566 19.3685 18.9219 19.4414 18.6484C19.5189 18.3704 19.6146 18.0719 19.7285 17.7529C19.8424 17.4339 19.9655 17.1081 20.0977 16.7754C20.2298 16.4382 20.3529 16.1146 20.4668 15.8047C20.5807 15.4948 20.6742 15.2077 20.7471 14.9434C20.8245 14.6745 20.8633 14.4512 20.8633 14.2734C20.8633 13.918 20.779 13.6354 20.6104 13.4258C20.4463 13.2161 20.1888 13.1113 19.8379 13.1113C19.528 13.1113 19.2295 13.1842 18.9424 13.3301C18.6553 13.4759 18.359 13.7083 18.0537 14.0273C17.7529 14.3418 17.4362 14.7497 17.1035 15.251C16.7754 15.7523 16.4176 16.3607 16.0303 17.0762L14.5947 21H13.583L17.8418 9.29688Z" fill="black"/>
</svg>
